<?xml version="1.0" encoding="iso-8859-1"?>
<!-- Generator: Adobe Illustrator 18.1.1, SVG Export Plug-In . SVG Version: 6.00 Build 0)  -->
<svg xmlns="http://www.w3.org/2000/svg" xmlns:xlink="http://www.w3.org/1999/xlink" version="1.1" id="Capa_1" x="0px" y="0px" viewBox="0 0 90.77 90.77" style="enable-background:new 0 0 90.77 90.77;" xml:space="preserve" width="512px" height="512px">
<g>
	<path d="M19.245,33.466l1.052-3.267h6.091l1.088,3.267h1.779h1.782l-5.683-16.062h-1.943h-1.943   l-5.683,16.062h1.739C17.524,33.466,19.245,33.466,19.245,33.466z M23.361,20.983L23.361,20.983L23.361,20.983L23.361,20.983   l2.133,6.453h-4.262L23.361,20.983z M34.745,57.802c0.49,1.238,1.109,2.434,1.825,3.579H14.804v-3.579H34.745z M14.432,72.45H53.91   v-0.594c-3.321-0.247-6.603-1.242-9.598-2.985h-29.88C14.432,68.871,14.432,72.45,14.432,72.45z M54.654,15.643H33.629v3.579   h21.026V15.643z M54.654,27.063v-0.945H33.629v3.579h11.37C47.998,28.087,51.305,27.206,54.654,27.063z M15.176,36.59v3.579H35.2   c0.565-1.235,1.242-2.434,2.044-3.579H15.176z M15.176,47.065v3.579H33.21c-0.061-1.192-0.047-2.387,0.079-3.579H15.176z    M60.091,71.473c1.854-0.376,3.654-0.991,5.368-1.832v21.13H3.624V0h61.835v29.307c-1.725-0.845-3.525-1.474-5.368-1.847V8.926   H8.992v69.19h51.099C60.091,78.116,60.091,71.473,60.091,71.473z M37.53,88.09v-2.684V82.12h-5.973v3.285v2.684H37.53z    M87.147,72.264l-3.436,4.123L71.01,65.801l-0.265-0.222l0.573-0.684l-2.154-1.789c-1.12,1.117-2.362,2.09-3.704,2.892   c-1.664,0.995-3.475,1.725-5.368,2.18c-1.457,0.351-2.963,0.54-4.502,0.54c-4.481,0-8.854-1.578-12.301-4.459   c-1.041-0.862-1.958-1.84-2.781-2.877c-0.877-1.106-1.589-2.312-2.197-3.579c-0.984-2.044-1.65-4.252-1.865-6.582   c-0.018-0.193,0.014-0.383,0.004-0.576c-0.075-1.206-0.05-2.401,0.097-3.579c0.304-2.423,1.045-4.756,2.237-6.896   c0.587-1.052,1.26-2.065,2.047-3.01c0.165-0.2,0.354-0.376,0.53-0.569c3.647-4.037,8.79-6.356,14.262-6.356   c1.517,0,3.006,0.243,4.466,0.598c1.879,0.451,3.697,1.149,5.368,2.147c0.859,0.512,1.696,1.07,2.469,1.718   c3.947,3.285,6.378,7.916,6.839,13.038c0.408,4.513-0.837,8.886-3.375,12.576l2.205,1.843l0.576-0.687l0.265,0.222L87.147,72.264z    M67.639,59.498c2.681-3.21,3.951-7.276,3.572-11.445c-0.372-4.166-2.351-7.934-5.565-10.608c-0.061-0.047-0.125-0.079-0.186-0.125   c-1.593-1.292-3.425-2.215-5.368-2.799c-1.442-0.433-2.935-0.709-4.466-0.709c-3.196,0-6.216,1.024-8.79,2.777   c-1.188,0.812-2.312,1.725-3.25,2.86c-0.19,0.225-0.315,0.487-0.49,0.719c-1.535,2.058-2.523,4.406-2.906,6.896   c-0.183,1.174-0.261,2.366-0.172,3.579c0.007,0.082-0.007,0.168,0,0.251c0.225,2.509,1.099,4.839,2.405,6.907   c0.834,1.317,1.818,2.545,3.038,3.579c0.047,0.043,0.079,0.089,0.125,0.129c2.806,2.341,6.356,3.633,10.003,3.633   c1.56,0,3.056-0.308,4.502-0.748c1.958-0.587,3.783-1.503,5.368-2.802C66.239,60.962,66.987,60.286,67.639,59.498z" fill="#006DF0"/>
</g>
<g>
</g>
<g>
</g>
<g>
</g>
<g>
</g>
<g>
</g>
<g>
</g>
<g>
</g>
<g>
</g>
<g>
</g>
<g>
</g>
<g>
</g>
<g>
</g>
<g>
</g>
<g>
</g>
<g>
</g>
</svg>
